# xmcd
#
# Track frame offsets:
#	150
#	11650
#	30676
#	43630
#	63320
#	78056
#	92241
#	114778
#	131195
#	152988
#	169025
#	190965
#	207427
#	225565
#
# Disc length: 3439 seconds
#
# Revision: 1
# Processed by: cddbd v1.4PL0 Copyright (c) Steve Scherf et al.
# Submitted via: audiograbber 1.82.02
#
DISCID=b20d6d0e
DTITLE=Band Of Oz - Dancing In The Street
DYEAR=2000
DGENRE=Blues
TTITLE0=Fly Me To The Moon
TTITLE1=Dancing In The Street
TTITLE2=Countdown To Love
TTITLE3=Temptation 'Bout To Get Me
TTITLE4=Love A Holic
TTITLE5=Shing Yo Ling
TTITLE6=Wall To Wall
TTITLE7=My Blue Heaven
TTITLE8=My Heart Belongs To You
TTITLE9=House Of Blue Lights
TTITLE10=Mills Brother medley
TTITLE11=Smoke From A Distant Fire
TTITLE12=Can't You Take A Hint
TTITLE13=Four Tops Medley
EXTD=
EXTT0=
EXTT1=
EXTT2=
EXTT3=
EXTT4=
EXTT5=
EXTT6=
EXTT7=
EXTT8=
EXTT9=
EXTT10=
EXTT11=
EXTT12=
EXTT13=
PLAYORDER=
